999
"DXF R12 Output" (www.mydxf.blogspot.com)
 0 
SECTION
 2 
HEADER
 9 
$ACADVER
 1 
AC1009
 9 
$EXTMIN
 10 
 0 
 20 
 0 
 9 
$EXTMAX
 10 
 8.5 
 20 
 11 
 0 
ENDSEC
 0 
SECTION
 2 
ENTITIES
0
POLYLINE
8
Layer 1
62
7
70
0
10
0.000000
20
0.000000
66
1
0
VERTEX
8
Layer 1
10
97.697807
20
1.704277
70
0
0
VERTEX
8
Layer 1
10
82.624052
20
49.455590
70
0
0
VERTEX
8
Layer 1
10
65.106341
20
105.252696
70
0
0
VERTEX
8
Layer 1
10
60.832317
20
118.896659
70
0
0
VERTEX
8
Layer 1
10
59.684350
20
122.876245
70
0
0
VERTEX
8
Layer 1
10
59.134689
20
125.397684
70
0
0
VERTEX
8
Layer 1
10
59.137539
20
126.788560
70
0
0
VERTEX
8
Layer 1
10
59.331846
20
127.162408
70
0
0
VERTEX
8
Layer 1
10
59.647109
20
127.376460
70
0
0
VERTEX
8
Layer 1
10
60.617605
20
127.488970
70
0
0
VERTEX
8
Layer 1
10
62.003234
20
127.453677
70
0
0
VERTEX
8
Layer 1
10
63.634966
20
127.480682
70
0
0
VERTEX
8
Layer 1
10
64.356109
20
127.669723
70
0
0
VERTEX
8
Layer 1
10
64.425056
20
127.875642
70
0
0
VERTEX
8
Layer 1
10
64.326171
20
128.182834
70
0
0
VERTEX
8
Layer 1
10
63.704663
20
129.182049
70
0
0
VERTEX
8
Layer 1
10
62.485341
20
131.304513
70
0
0
VERTEX
8
Layer 1
10
61.587146
20
133.547681
70
0
0
VERTEX
8
Layer 1
10
61.009145
20
135.936484
70
0
0
VERTEX
8
Layer 1
10
60.750401
20
138.495851
70
0
0
VERTEX
8
Layer 1
10
60.809981
20
141.250714
70
0
0
VERTEX
8
Layer 1
10
61.186947
20
144.226004
70
0
0
VERTEX
8
Layer 1
10
61.880366
20
147.446649
70
0
0
VERTEX
8
Layer 1
10
62.889301
20
150.937582
70
0
0
VERTEX
8
Layer 1
10
64.166458
20
155.304683
70
0
0
VERTEX
8
Layer 1
10
64.978229
20
159.109307
70
0
0
VERTEX
8
Layer 1
10
65.307684
20
162.466895
70
0
0
VERTEX
8
Layer 1
10
65.137895
20
165.492892
70
0
0
VERTEX
8
Layer 1
10
64.451934
20
168.302741
70
0
0
VERTEX
8
Layer 1
10
63.232872
20
171.011885
70
0
0
VERTEX
8
Layer 1
10
61.463780
20
173.735767
70
0
0
VERTEX
8
Layer 1
10
59.127730
20
176.589830
70
0
0
VERTEX
8
Layer 1
10
56.244043
20
180.017573
70
0
0
VERTEX
8
Layer 1
10
54.147873
20
183.000508
70
0
0
VERTEX
8
Layer 1
10
52.583152
20
185.953870
70
0
0
VERTEX
8
Layer 1
10
51.293815
20
189.292892
70
0
0
VERTEX
8
Layer 1
10
50.312861
20
192.907137
70
0
0
VERTEX
8
Layer 1
10
49.637352
20
196.784930
70
0
0
VERTEX
8
Layer 1
10
49.260763
20
200.590349
70
0
0
VERTEX
8
Layer 1
10
49.176571
20
203.987470
70
0
0
VERTEX
8
Layer 1
10
49.378253
20
206.640374
70
0
0
VERTEX
8
Layer 1
10
49.584258
20
207.582768
70
0
0
VERTEX
8
Layer 1
10
49.859285
20
208.213137
70
0
0
VERTEX
8
Layer 1
10
50.202518
20
208.489490
70
0
0
VERTEX
8
Layer 1
10
50.613143
20
208.369837
70
0
0
VERTEX
8
Layer 1
10
51.090343
20
207.812188
70
0
0
VERTEX
8
Layer 1
10
51.633304
20
206.774553
70
0
0
VERTEX
8
Layer 1
10
52.254020
20
205.588014
70
0
0
VERTEX
8
Layer 1
10
52.982091
20
204.555289
70
0
0
VERTEX
8
Layer 1
10
53.805324
20
203.676661
70
0
0
VERTEX
8
Layer 1
10
54.711526
20
202.952411
70
0
0
VERTEX
8
Layer 1
10
55.688504
20
202.382823
70
0
0
VERTEX
8
Layer 1
10
56.724063
20
201.968178
70
0
0
VERTEX
8
Layer 1
10
57.806011
20
201.708759
70
0
0
VERTEX
8
Layer 1
10
58.922154
20
201.604849
70
0
0
VERTEX
8
Layer 1
10
60.060299
20
201.656729
70
0
0
VERTEX
8
Layer 1
10
61.208252
20
201.864682
70
0
0
VERTEX
8
Layer 1
10
62.353821
20
202.228991
70
0
0
VERTEX
8
Layer 1
10
63.484811
20
202.749937
70
0
0
VERTEX
8
Layer 1
10
64.589030
20
203.427804
70
0
0
VERTEX
8
Layer 1
10
65.654283
20
204.262873
70
0
0
VERTEX
8
Layer 1
10
66.668378
20
205.255428
70
0
0
VERTEX
8
Layer 1
10
67.619121
20
206.405749
70
0
0
VERTEX
8
Layer 1
10
68.782395
20
208.105719
70
0
0
VERTEX
8
Layer 1
10
69.726981
20
209.823754
70
0
0
VERTEX
8
Layer 1
10
70.471122
20
211.640675
70
0
0
VERTEX
8
Layer 1
10
71.033062
20
213.637300
70
0
0
VERTEX
8
Layer 1
10
71.431044
20
215.894451
70
0
0
VERTEX
8
Layer 1
10
71.683311
20
218.492947
70
0
0
VERTEX
8
Layer 1
10
71.823674
20
225.037255
70
0
0
VERTEX
8
Layer 1
10
71.947981
20
230.557998
70
0
0
VERTEX
8
Layer 1
10
72.439694
20
235.581423
70
0
0
VERTEX
8
Layer 1
10
73.326036
20
240.180497
70
0
0
VERTEX
8
Layer 1
10
74.634231
20
244.428187
70
0
0
VERTEX
8
Layer 1
10
76.391499
20
248.397463
70
0
0
VERTEX
8
Layer 1
10
78.625065
20
252.161289
70
0
0
VERTEX
8
Layer 1
10
81.362150
20
255.792636
70
0
0
VERTEX
8
Layer 1
10
84.629978
20
259.364469
70
0
0
VERTEX
8
Layer 1
10
89.073546
20
263.529417
70
0
0
VERTEX
8
Layer 1
10
90.710789
20
264.777549
70
0
0
VERTEX
8
Layer 1
10
91.978846
20
265.477504
70
0
0
VERTEX
8
Layer 1
10
92.893096
20
265.635315
70
0
0
VERTEX
8
Layer 1
10
93.222350
20
265.512805
70
0
0
VERTEX
8
Layer 1
10
93.468920
20
265.257022
70
0
0
VERTEX
8
Layer 1
10
93.721699
20
264.348660
70
0
0
VERTEX
8
Layer 1
10
93.666814
20
262.916265
70
0
0
VERTEX
8
Layer 1
10
93.492527
20
260.484390
70
0
0
VERTEX
8
Layer 1
10
93.546158
20
258.037838
70
0
0
VERTEX
8
Layer 1
10
93.818860
20
255.591265
70
0
0
VERTEX
8
Layer 1
10
94.301780
20
253.159322
70
0
0
VERTEX
8
Layer 1
10
94.986071
20
250.756665
70
0
0
VERTEX
8
Layer 1
10
95.862883
20
248.397947
70
0
0
VERTEX
8
Layer 1
10
96.923366
20
246.097822
70
0
0
VERTEX
8
Layer 1
10
98.158670
20
243.870944
70
0
0
VERTEX
8
Layer 1
10
99.559945
20
241.731967
70
0
0
VERTEX
8
Layer 1
10
101.118343
20
239.695544
70
0
0
VERTEX
8
Layer 1
10
102.825014
20
237.776329
70
0
0
VERTEX
8
Layer 1
10
104.671108
20
235.988977
70
0
0
VERTEX
8
Layer 1
10
106.647775
20
234.348141
70
0
0
VERTEX
8
Layer 1
10
108.746166
20
232.868474
70
0
0
VERTEX
8
Layer 1
10
110.957432
20
231.564631
70
0
0
VERTEX
8
Layer 1
10
113.272722
20
230.451265
70
0
0
VERTEX
8
Layer 1
10
115.276060
20
229.626045
70
0
0
VERTEX
8
Layer 1
10
115.874488
20
229.490766
70
0
0
VERTEX
8
Layer 1
10
116.265195
20
229.584856
70
0
0
VERTEX
8
Layer 1
10
116.494010
20
229.941677
70
0
0
VERTEX
8
Layer 1
10
116.606764
20
230.594589
70
0
0
VERTEX
8
Layer 1
10
116.667407
20
232.922132
70
0
0
VERTEX
8
Layer 1
10
116.915896
20
236.291644
70
0
0
VERTEX
8
Layer 1
10
117.551896
20
239.555280
70
0
0
VERTEX
8
Layer 1
10
118.552111
20
242.669495
70
0
0
VERTEX
8
Layer 1
10
119.893245
20
245.590746
70
0
0
VERTEX
8
Layer 1
10
121.552005
20
248.275487
70
0
0
VERTEX
8
Layer 1
10
123.505094
20
250.680177
70
0
0
VERTEX
8
Layer 1
10
125.729219
20
252.761269
70
0
0
VERTEX
8
Layer 1
10
128.201082
20
254.475220
70
0
0
VERTEX
8
Layer 1
10
129.355660
20
254.994844
70
0
0
VERTEX
8
Layer 1
10
129.755851
20
255.001206
70
0
0
VERTEX
8
Layer 1
10
130.054868
20
254.819891
70
0
0
VERTEX
8
Layer 1
10
130.400064
20
253.838109
70
0
0
VERTEX
8
Layer 1
10
130.492605
20
251.937242
70
0
0
VERTEX
8
Layer 1
10
130.769707
20
247.288204
70
0
0
VERTEX
8
Layer 1
10
131.574348
20
242.476605
70
0
0
VERTEX
8
Layer 1
10
132.866527
20
237.600748
70
0
0
VERTEX
8
Layer 1
10
134.606243
20
232.758936
70
0
0
VERTEX
8
Layer 1
10
136.753497
20
228.049476
70
0
0
VERTEX
8
Layer 1
10
139.268287
20
223.570671
70
0
0
VERTEX
8
Layer 1
10
142.110613
20
219.420824
70
0
0
VERTEX
8
Layer 1
10
145.240476
20
215.698242
70
0
0
VERTEX
8
Layer 1
10
150.349102
20
210.069783
70
0
0
VERTEX
8
Layer 1
10
154.599031
20
204.957598
70
0
0
VERTEX
8
Layer 1
10
158.062732
20
200.230034
70
0
0
VERTEX
8
Layer 1
10
160.812671
20
195.755439
70
0
0
VERTEX
8
Layer 1
10
162.921317
20
191.402161
70
0
0
VERTEX
8
Layer 1
10
164.461136
20
187.038549
70
0
0
VERTEX
8
Layer 1
10
165.504596
20
182.532951
70
0
0
VERTEX
8
Layer 1
10
166.124164
20
177.753714
70
0
0
VERTEX
8
Layer 1
10
166.302523
20
176.117196
70
0
0
VERTEX
8
Layer 1
10
166.423155
20
175.710944
70
0
0
VERTEX
8
Layer 1
10
166.600540
20
175.580717
70
0
0
VERTEX
8
Layer 1
10
167.232924
20
176.152402
70
0
0
VERTEX
8
Layer 1
10
168.414382
20
177.840377
70
0
0
VERTEX
8
Layer 1
10
169.281601
20
179.129953
70
0
0
VERTEX
8
Layer 1
10
169.990065
20
180.006789
70
0
0
VERTEX
8
Layer 1
10
170.695678
20
180.393367
70
0
0
VERTEX
8
Layer 1
10
171.554344
20
180.212170
70
0
0
VERTEX
8
Layer 1
10
172.721968
20
179.385680
70
0
0
VERTEX
8
Layer 1
10
174.354454
20
177.836379
70
0
0
VERTEX
8
Layer 1
10
179.637626
20
172.259280
70
0
0
VERTEX
8
Layer 1
10
206.399928
20
143.753739
70
0
0
VERTEX
8
Layer 1
10
244.407108
20
103.285584
70
0
0
VERTEX
8
Layer 1
10
255.227526
20
91.718479
70
0
0
VERTEX
8
Layer 1
10
261.117836
20
85.207509
70
0
0
VERTEX
8
Layer 1
10
262.594365
20
83.406054
70
0
0
VERTEX
8
Layer 1
10
263.294565
20
82.338206
70
0
0
VERTEX
8
Layer 1
10
263.370502
20
81.827157
70
0
0
VERTEX
8
Layer 1
10
262.974240
20
81.696098
70
0
0
VERTEX
8
Layer 1
10
238.028852
20
90.335359
70
0
0
VERTEX
8
Layer 1
10
174.963993
20
112.418478
70
0
0
VERTEX
8
Layer 1
10
157.794143
20
118.435663
70
0
0
VERTEX
8
Layer 1
10
145.088454
20
122.883555
70
0
0
VERTEX
8
Layer 1
10
137.666497
20
125.468577
70
0
0
VERTEX
8
Layer 1
10
135.539682
20
126.295235
70
0
0
VERTEX
8
Layer 1
10
134.270332
20
126.943413
70
0
0
VERTEX
8
Layer 1
10
133.709465
20
127.512182
70
0
0
VERTEX
8
Layer 1
10
133.708095
20
128.100608
70
0
0
VERTEX
8
Layer 1
10
134.117240
20
128.807760
70
0
0
VERTEX
8
Layer 1
10
134.787918
20
129.732705
70
0
0
VERTEX
8
Layer 1
10
135.464709
20
130.723911
70
0
0
VERTEX
8
Layer 1
10
135.689751
20
131.258824
70
0
0
VERTEX
8
Layer 1
10
135.462546
20
131.521501
70
0
0
VERTEX
8
Layer 1
10
134.782595
20
131.696004
70
0
0
VERTEX
8
Layer 1
10
133.512096
20
132.051583
70
0
0
VERTEX
8
Layer 1
10
132.320825
20
132.572490
70
0
0
VERTEX
8
Layer 1
10
131.191301
20
133.275166
70
0
0
VERTEX
8
Layer 1
10
130.106043
20
134.176052
70
0
0
VERTEX
8
Layer 1
10
129.047570
20
135.291590
70
0
0
VERTEX
8
Layer 1
10
127.998401
20
136.638221
70
0
0
VERTEX
8
Layer 1
10
125.858050
20
140.090529
70
0
0
VERTEX
8
Layer 1
10
123.831572
20
143.445773
70
0
0
VERTEX
8
Layer 1
10
122.137227
20
145.640357
70
0
0
VERTEX
8
Layer 1
10
120.763355
20
146.804564
70
0
0
VERTEX
8
Layer 1
10
120.192952
20
147.040989
70
0
0
VERTEX
8
Layer 1
10
119.698294
20
147.068677
70
0
0
VERTEX
8
Layer 1
10
119.277924
20
146.903911
70
0
0
VERTEX
8
Layer 1
10
118.930384
20
146.562978
70
0
0
VERTEX
8
Layer 1
10
118.447964
20
145.417752
70
0
0
VERTEX
8
Layer 1
10
118.239373
20
143.763280
70
0
0
VERTEX
8
Layer 1
10
118.292950
20
141.729846
70
0
0
VERTEX
8
Layer 1
10
118.597035
20
139.447732
70
0
0
VERTEX
8
Layer 1
10
119.139966
20
137.047222
70
0
0
VERTEX
8
Layer 1
10
119.910083
20
134.658598
70
0
0
VERTEX
8
Layer 1
10
120.895725
20
132.412143
70
0
0
VERTEX
8
Layer 1
10
122.085231
20
130.438141
70
0
0
VERTEX
8
Layer 1
10
123.466940
20
128.866874
70
0
0
VERTEX
8
Layer 1
10
124.226227
20
128.272979
70
0
0
VERTEX
8
Layer 1
10
125.029192
20
127.828625
70
0
0
VERTEX
8
Layer 1
10
125.874378
20
127.550095
70
0
0
VERTEX
8
Layer 1
10
126.760326
20
127.453677
70
0
0
VERTEX
8
Layer 1
10
129.040032
20
127.382199
70
0
0
VERTEX
8
Layer 1
10
129.689322
20
127.189281
70
0
0
VERTEX
8
Layer 1
10
130.053250
20
126.799663
70
0
0
VERTEX
8
Layer 1
10
130.163077
20
126.144408
70
0
0
VERTEX
8
Layer 1
10
130.050062
20
125.154580
70
0
0
VERTEX
8
Layer 1
10
129.280551
20
121.895458
70
0
0
VERTEX
8
Layer 1
10
112.800242
20
55.868652
70
0
0
VERTEX
8
Layer 1
10
100.386698
20
6.316049
70
0
0
VERTEX
8
Layer 1
10
98.970411
20
1.456692
70
0
0
VERTEX
8
Layer 1
10
98.720022
20
1.182952
70
0
0
VERTEX
8
Layer 1
10
98.492949
20
1.270962
70
0
0
VERTEX
8
Layer 1
10
97.994457
20
1.398248
70
0
0
VERTEX
8
Layer 1
10
97.699531
20
1.704277
70
0
0
VERTEX
8
Layer 1
10
97.697807
20
1.704277
70
0
0
SEQEND
8
Layer 1
0
POLYLINE
8
Layer 1
62
7
70
0
10
0.000000
20
0.000000
66
1
0
VERTEX
8
Layer 1
10
108.015513
20
43.735832
70
0
0
VERTEX
8
Layer 1
10
122.978694
20
103.682362
70
0
0
VERTEX
8
Layer 1
10
128.310963
20
125.609835
70
0
0
VERTEX
8
Layer 1
10
94.347969
20
125.634551
70
0
0
VERTEX
8
Layer 1
10
81.832048
20
125.752254
70
0
0
VERTEX
8
Layer 1
10
76.913593
20
125.795189
70
0
0
VERTEX
8
Layer 1
10
72.832543
20
125.709861
70
0
0
VERTEX
8
Layer 1
10
69.547196
20
125.408035
70
0
0
VERTEX
8
Layer 1
10
67.015853
20
124.801471
70
0
0
VERTEX
8
Layer 1
10
66.019902
20
124.356339
70
0
0
VERTEX
8
Layer 1
10
65.196814
20
123.801934
70
0
0
VERTEX
8
Layer 1
10
64.541376
20
123.127225
70
0
0
VERTEX
8
Layer 1
10
64.048378
20
122.321184
70
0
0
VERTEX
8
Layer 1
10
63.712605
20
121.372780
70
0
0
VERTEX
8
Layer 1
10
63.528845
20
120.270984
70
0
0
VERTEX
8
Layer 1
10
63.596516
20
117.563098
70
0
0
VERTEX
8
Layer 1
10
64.209690
20
114.109286
70
0
0
VERTEX
8
Layer 1
10
65.326668
20
109.821312
70
0
0
VERTEX
8
Layer 1
10
68.905231
20
98.389927
70
0
0
VERTEX
8
Layer 1
10
73.998606
20
82.563040
70
0
0
VERTEX
8
Layer 1
10
91.568857
20
26.578742
70
0
0
VERTEX
8
Layer 1
10
96.730543
20
10.257456
70
0
0
VERTEX
8
Layer 1
10
98.380823
20
5.488781
70
0
0
VERTEX
8
Layer 1
10
108.014826
20
43.738363
70
0
0
VERTEX
8
Layer 1
10
108.015513
20
43.735832
70
0
0
SEQEND
8
Layer 1
0
POLYLINE
8
Layer 1
62
7
70
0
10
0.000000
20
0.000000
66
1
0
VERTEX
8
Layer 1
10
257.678228
20
86.634017
70
0
0
VERTEX
8
Layer 1
10
249.620074
20
95.220587
70
0
0
VERTEX
8
Layer 1
10
182.740074
20
166.450640
70
0
0
VERTEX
8
Layer 1
10
171.185452
20
178.583460
70
0
0
VERTEX
8
Layer 1
10
153.501863
20
153.495821
70
0
0
VERTEX
8
Layer 1
10
135.987259
20
128.166393
70
0
0
VERTEX
8
Layer 1
10
136.415969
20
127.804126
70
0
0
VERTEX
8
Layer 1
10
137.446696
20
127.355851
70
0
0
VERTEX
8
Layer 1
10
151.783521
20
122.320038
70
0
0
VERTEX
8
Layer 1
10
195.051543
20
107.160946
70
0
0
VERTEX
8
Layer 1
10
253.772430
20
86.558031
70
0
0
VERTEX
8
Layer 1
10
257.156795
20
85.370643
70
0
0
VERTEX
8
Layer 1
10
258.713441
20
84.983369
70
0
0
VERTEX
8
Layer 1
10
258.910665
20
85.091849
70
0
0
VERTEX
8
Layer 1
10
258.776116
20
85.402848
70
0
0
VERTEX
8
Layer 1
10
257.678571
20
86.635719
70
0
0
VERTEX
8
Layer 1
10
257.678228
20
86.634017
70
0
0
SEQEND
8
Layer 1
0
POLYLINE
8
Layer 1
62
7
70
0
10
0.000000
20
0.000000
66
1
0
VERTEX
8
Layer 1
10
74.778117
20
129.171684
70
0
0
VERTEX
8
Layer 1
10
75.313306
20
130.727734
70
0
0
VERTEX
8
Layer 1
10
75.537196
20
132.590717
70
0
0
VERTEX
8
Layer 1
10
75.447651
20
134.697394
70
0
0
VERTEX
8
Layer 1
10
75.042533
20
136.984527
70
0
0
VERTEX
8
Layer 1
10
74.748621
20
138.543199
70
0
0
VERTEX
8
Layer 1
10
74.618574
20
140.042532
70
0
0
VERTEX
8
Layer 1
10
74.642884
20
141.471203
70
0
0
VERTEX
8
Layer 1
10
74.812045
20
142.817889
70
0
0
VERTEX
8
Layer 1
10
75.116549
20
144.071267
70
0
0
VERTEX
8
Layer 1
10
75.546888
20
145.220015
70
0
0
VERTEX
8
Layer 1
10
76.093556
20
146.252810
70
0
0
VERTEX
8
Layer 1
10
76.747044
20
147.158330
70
0
0
VERTEX
8
Layer 1
10
77.497846
20
147.925250
70
0
0
VERTEX
8
Layer 1
10
78.336455
20
148.542250
70
0
0
VERTEX
8
Layer 1
10
79.253362
20
148.998005
70
0
0
VERTEX
8
Layer 1
10
80.239061
20
149.281194
70
0
0
VERTEX
8
Layer 1
10
81.284044
20
149.380493
70
0
0
VERTEX
8
Layer 1
10
82.378805
20
149.284581
70
0
0
VERTEX
8
Layer 1
10
83.513834
20
148.982133
70
0
0
VERTEX
8
Layer 1
10
84.679627
20
148.461828
70
0
0
VERTEX
8
Layer 1
10
85.689031
20
148.018707
70
0
0
VERTEX
8
Layer 1
10
86.692186
20
147.766188
70
0
0
VERTEX
8
Layer 1
10
87.678143
20
147.693049
70
0
0
VERTEX
8
Layer 1
10
88.635952
20
147.788071
70
0
0
VERTEX
8
Layer 1
10
89.554664
20
148.040031
70
0
0
VERTEX
8
Layer 1
10
90.423330
20
148.437710
70
0
0
VERTEX
8
Layer 1
10
91.966725
20
149.625339
70
0
0
VERTEX
8
Layer 1
10
93.178545
20
151.261193
70
0
0
VERTEX
8
Layer 1
10
93.971193
20
153.255505
70
0
0
VERTEX
8
Layer 1
10
94.257075
20
155.518509
70
0
0
VERTEX
8
Layer 1
10
94.182607
20
156.722719
70
0
0
VERTEX
8
Layer 1
10
93.948598
20
157.960439
70
0
0
VERTEX
8
Layer 1
10
93.525300
20
160.056355
70
0
0
VERTEX
8
Layer 1
10
93.530691
20
160.676405
70
0
0
VERTEX
8
Layer 1
10
93.700434
20
161.028162
70
0
0
VERTEX
8
Layer 1
10
94.049272
20
161.124360
70
0
0
VERTEX
8
Layer 1
10
94.591949
20
160.977732
70
0
0
VERTEX
8
Layer 1
10
96.317797
20
160.006934
70
0
0
VERTEX
8
Layer 1
10
98.023250
20
158.771196
70
0
0
VERTEX
8
Layer 1
10
99.510275
20
157.399638
70
0
0
VERTEX
8
Layer 1
10
100.782587
20
155.908115
70
0
0
VERTEX
8
Layer 1
10
101.843903
20
154.312487
70
0
0
VERTEX
8
Layer 1
10
102.697937
20
152.628611
70
0
0
VERTEX
8
Layer 1
10
103.348404
20
150.872344
70
0
0
VERTEX
8
Layer 1
10
103.799021
20
149.059546
70
0
0
VERTEX
8
Layer 1
10
104.053501
20
147.206072
70
0
0
VERTEX
8
Layer 1
10
104.115562
20
145.327782
70
0
0
VERTEX
8
Layer 1
10
103.988917
20
143.440533
70
0
0
VERTEX
8
Layer 1
10
103.677283
20
141.560183
70
0
0
VERTEX
8
Layer 1
10
103.184374
20
139.702589
70
0
0
VERTEX
8
Layer 1
10
102.513907
20
137.883610
70
0
0
VERTEX
8
Layer 1
10
101.669595
20
136.119103
70
0
0
VERTEX
8
Layer 1
10
100.655155
20
134.424927
70
0
0
VERTEX
8
Layer 1
10
99.474302
20
132.816938
70
0
0
VERTEX
8
Layer 1
10
98.852830
20
131.980400
70
0
0
VERTEX
8
Layer 1
10
98.616381
20
131.452121
70
0
0
VERTEX
8
Layer 1
10
98.610350
20
130.295218
70
0
0
VERTEX
8
Layer 1
10
98.702561
20
129.724156
70
0
0
VERTEX
8
Layer 1
10
98.921562
20
129.156288
70
0
0
VERTEX
8
Layer 1
10
99.245188
20
128.244875
70
0
0
VERTEX
8
Layer 1
10
101.481272
20
128.075163
70
0
0
VERTEX
8
Layer 1
10
104.373076
20
127.705167
70
0
0
VERTEX
8
Layer 1
10
107.626840
20
127.319187
70
0
0
VERTEX
8
Layer 1
10
110.948802
20
127.101521
70
0
0
VERTEX
8
Layer 1
10
114.045200
20
127.236469
70
0
0
VERTEX
8
Layer 1
10
115.417012
20
127.493766
70
0
0
VERTEX
8
Layer 1
10
116.622273
20
127.908329
70
0
0
VERTEX
8
Layer 1
10
117.624262
20
128.503195
70
0
0
VERTEX
8
Layer 1
10
118.386260
20
129.301400
70
0
0
VERTEX
8
Layer 1
10
118.871545
20
130.325983
70
0
0
VERTEX
8
Layer 1
10
119.043399
20
131.599981
70
0
0
VERTEX
8
Layer 1
10
118.933776
20
133.539649
70
0
0
VERTEX
8
Layer 1
10
118.645684
20
135.455586
70
0
0
VERTEX
8
Layer 1
10
117.826949
20
139.125103
70
0
0
VERTEX
8
Layer 1
10
117.172916
20
142.426216
70
0
0
VERTEX
8
Layer 1
10
117.090701
20
143.881646
70
0
0
VERTEX
8
Layer 1
10
117.269307
20
145.176607
70
0
0
VERTEX
8
Layer 1
10
117.950107
20
146.736936
70
0
0
VERTEX
8
Layer 1
10
118.396913
20
147.268420
70
0
0
VERTEX
8
Layer 1
10
118.905293
20
147.639603
70
0
0
VERTEX
8
Layer 1
10
119.468225
20
147.854596
70
0
0
VERTEX
8
Layer 1
10
120.078686
20
147.917514
70
0
0
VERTEX
8
Layer 1
10
121.414109
20
147.603578
70
0
0
VERTEX
8
Layer 1
10
122.855383
20
146.730701
70
0
0
VERTEX
8
Layer 1
10
124.346333
20
145.331791
70
0
0
VERTEX
8
Layer 1
10
125.830779
20
143.439755
70
0
0
VERTEX
8
Layer 1
10
127.252544
20
141.087500
70
0
0
VERTEX
8
Layer 1
10
128.749558
20
138.553555
70
0
0
VERTEX
8
Layer 1
10
130.273912
20
136.486648
70
0
0
VERTEX
8
Layer 1
10
131.795868
20
134.903580
70
0
0
VERTEX
8
Layer 1
10
133.285686
20
133.821154
70
0
0
VERTEX
8
Layer 1
10
134.713629
20
133.256171
70
0
0
VERTEX
8
Layer 1
10
136.049957
20
133.225432
70
0
0
VERTEX
8
Layer 1
10
137.264932
20
133.745741
70
0
0
VERTEX
8
Layer 1
10
138.328815
20
134.833898
70
0
0
VERTEX
8
Layer 1
10
138.989918
20
135.813601
70
0
0
VERTEX
8
Layer 1
10
139.189884
20
136.437250
70
0
0
VERTEX
8
Layer 1
10
138.910350
20
136.972216
70
0
0
VERTEX
8
Layer 1
10
138.132955
20
137.685873
70
0
0
VERTEX
8
Layer 1
10
136.998411
20
138.890945
70
0
0
VERTEX
8
Layer 1
10
136.243632
20
140.334385
70
0
0
VERTEX
8
Layer 1
10
135.776320
20
142.271499
70
0
0
VERTEX
8
Layer 1
10
135.504182
20
144.957592
70
0
0
VERTEX
8
Layer 1
10
135.201022
20
148.111646
70
0
0
VERTEX
8
Layer 1
10
134.696625
20
150.814733
70
0
0
VERTEX
8
Layer 1
10
133.930781
20
153.161017
70
0
0
VERTEX
8
Layer 1
10
132.843280
20
155.244663
70
0
0
VERTEX
8
Layer 1
10
131.373911
20
157.159837
70
0
0
VERTEX
8
Layer 1
10
129.462464
20
159.000703
70
0
0
VERTEX
8
Layer 1
10
127.048729
20
160.861425
70
0
0
VERTEX
8
Layer 1
10
124.072496
20
162.836169
70
0
0
VERTEX
8
Layer 1
10
120.617225
20
165.245510
70
0
0
VERTEX
8
Layer 1
10
117.772604
20
167.742020
70
0
0
VERTEX
8
Layer 1
10
115.535579
20
170.331981
70
0
0
VERTEX
8
Layer 1
10
113.903094
20
173.021671
70
0
0
VERTEX
8
Layer 1
10
113.312600
20
174.405878
70
0
0
VERTEX
8
Layer 1
10
112.872096
20
175.817372
70
0
0
VERTEX
8
Layer 1
10
112.581200
20
177.256939
70
0
0
VERTEX
8
Layer 1
10
112.439531
20
178.725364
70
0
0
VERTEX
8
Layer 1
10
112.602343
20
181.751927
70
0
0
VERTEX
8
Layer 1
10
113.357479
20
184.903342
70
0
0
VERTEX
8
Layer 1
10
114.299074
20
187.052560
70
0
0
VERTEX
8
Layer 1
10
115.298514
20
188.311273
70
0
0
VERTEX
8
Layer 1
10
115.737422
20
188.541429
70
0
0
VERTEX
8
Layer 1
10
116.091786
20
188.470643
70
0
0
VERTEX
8
Layer 1
10
116.328606
20
188.072811
70
0
0
VERTEX
8
Layer 1
10
116.414880
20
187.321829
70
0
0
VERTEX
8
Layer 1
10
116.539840
20
186.209468
70
0
0
VERTEX
8
Layer 1
10
116.895106
20
185.038813
70
0
0
VERTEX
8
Layer 1
10
117.451257
20
183.851466
70
0
0
VERTEX
8
Layer 1
10
118.178872
20
182.689029
70
0
0
VERTEX
8
Layer 1
10
119.048529
20
181.593101
70
0
0
VERTEX
8
Layer 1
10
120.030807
20
180.605284
70
0
0
VERTEX
8
Layer 1
10
121.096285
20
179.767180
70
0
0
VERTEX
8
Layer 1
10
122.215542
20
179.120389
70
0
0
VERTEX
8
Layer 1
10
123.469664
20
178.575224
70
0
0
VERTEX
8
Layer 1
10
124.035606
20
178.537953
70
0
0
VERTEX
8
Layer 1
10
124.003303
20
179.096435
70
0
0
VERTEX
8
Layer 1
10
123.462691
20
180.338524
70
0
0
VERTEX
8
Layer 1
10
122.703134
20
182.276948
70
0
0
VERTEX
8
Layer 1
10
122.241286
20
184.239291
70
0
0
VERTEX
8
Layer 1
10
122.073791
20
186.201536
70
0
0
VERTEX
8
Layer 1
10
122.197295
20
188.139668
70
0
0
VERTEX
8
Layer 1
10
122.608443
20
190.029669
70
0
0
VERTEX
8
Layer 1
10
123.303879
20
191.847522
70
0
0
VERTEX
8
Layer 1
10
124.280250
20
193.569213
70
0
0
VERTEX
8
Layer 1
10
125.534199
20
195.170723
70
0
0
VERTEX
8
Layer 1
10
126.609229
20
196.190688
70
0
0
VERTEX
8
Layer 1
10
126.967642
20
196.323861
70
0
0
VERTEX
8
Layer 1
10
127.226876
20
196.178350
70
0
0
VERTEX
8
Layer 1
10
127.508482
20
194.968834
70
0
0
VERTEX
8
Layer 1
10
127.575386
20
192.397265
70
0
0
VERTEX
8
Layer 1
10
127.716061
20
188.934255
70
0
0
VERTEX
8
Layer 1
10
128.003104
20
188.027256
70
0
0
VERTEX
8
Layer 1
10
128.533463
20
187.126075
70
0
0
VERTEX
8
Layer 1
10
129.617841
20
185.797475
70
0
0
VERTEX
8
Layer 1
10
130.804367
20
184.883811
70
0
0
VERTEX
8
Layer 1
10
132.013047
20
184.378216
70
0
0
VERTEX
8
Layer 1
10
133.163884
20
184.273826
70
0
0
VERTEX
8
Layer 1
10
134.176883
20
184.563776
70
0
0
VERTEX
8
Layer 1
10
134.972049
20
185.241201
70
0
0
VERTEX
8
Layer 1
10
135.469386
20
186.299237
70
0
0
VERTEX
8
Layer 1
10
135.588898
20
187.731017
70
0
0
VERTEX
8
Layer 1
10
135.612053
20
189.411729
70
0
0
VERTEX
8
Layer 1
10
135.854895
20
189.672964
70
0
0
VERTEX
8
Layer 1
10
136.331872
20
189.767251
70
0
0
VERTEX
8
Layer 1
10
137.292506
20
189.696553
70
0
0
VERTEX
8
Layer 1
10
138.286121
20
189.321003
70
0
0
VERTEX
8
Layer 1
10
139.263386
20
188.692755
70
0
0
VERTEX
8
Layer 1
10
140.174969
20
187.863963
70
0
0
VERTEX
8
Layer 1
10
140.971540
20
186.886782
70
0
0
VERTEX
8
Layer 1
10
141.603766
20
185.813366
70
0
0
VERTEX
8
Layer 1
10
142.022318
20
184.695869
70
0
0
VERTEX
8
Layer 1
10
142.177862
20
183.586446
70
0
0
VERTEX
8
Layer 1
10
142.291408
20
181.831454
70
0
0
VERTEX
8
Layer 1
10
142.618769
20
180.328253
70
0
0
VERTEX
8
Layer 1
10
143.179965
20
179.056556
70
0
0
VERTEX
8
Layer 1
10
143.995015
20
177.996075
70
0
0
VERTEX
8
Layer 1
10
145.083937
20
177.126525
70
0
0
VERTEX
8
Layer 1
10
146.466750
20
176.427616
70
0
0
VERTEX
8
Layer 1
10
148.163472
20
175.879062
70
0
0
VERTEX
8
Layer 1
10
150.194122
20
175.460576
70
0
0
VERTEX
8
Layer 1
10
154.131329
20
174.634973
70
0
0
VERTEX
8
Layer 1
10
155.636174
20
174.135811
70
0
0
VERTEX
8
Layer 1
10
156.888646
20
173.547122
70
0
0
VERTEX
8
Layer 1
10
157.931346
20
172.844939
70
0
0
VERTEX
8
Layer 1
10
158.806873
20
172.005298
70
0
0
VERTEX
8
Layer 1
10
159.557827
20
171.004232
70
0
0
VERTEX
8
Layer 1
10
160.226809
20
169.817775
70
0
0
VERTEX
8
Layer 1
10
160.649062
20
169.118327
70
0
0
VERTEX
8
Layer 1
10
161.078222
20
168.678342
70
0
0
VERTEX
8
Layer 1
10
161.507775
20
168.480691
70
0
0
VERTEX
8
Layer 1
10
161.931205
20
168.508244
70
0
0
VERTEX
8
Layer 1
10
162.341999
20
168.743871
70
0
0
VERTEX
8
Layer 1
10
162.733641
20
169.170442
70
0
0
VERTEX
8
Layer 1
10
163.433411
20
170.527896
70
0
0
VERTEX
8
Layer 1
10
163.978400
20
172.443567
70
0
0
VERTEX
8
Layer 1
10
164.316491
20
174.780417
70
0
0
VERTEX
8
Layer 1
10
164.395567
20
177.401407
70
0
0
VERTEX
8
Layer 1
10
164.163512
20
180.169497
70
0
0
VERTEX
8
Layer 1
10
163.421921
20
184.030482
70
0
0
VERTEX
8
Layer 1
10
162.358378
20
187.539681
70
0
0
VERTEX
8
Layer 1
10
160.957423
20
190.718849
70
0
0
VERTEX
8
Layer 1
10
159.203597
20
193.589739
70
0
0
VERTEX
8
Layer 1
10
157.081443
20
196.174105
70
0
0
VERTEX
8
Layer 1
10
154.575502
20
198.493700
70
0
0
VERTEX
8
Layer 1
10
151.670315
20
200.570279
70
0
0
VERTEX
8
Layer 1
10
148.350423
20
202.425595
70
0
0
VERTEX
8
Layer 1
10
145.916720
20
203.677128
70
0
0
VERTEX
8
Layer 1
10
144.214936
20
204.738492
70
0
0
VERTEX
8
Layer 1
10
142.692212
20
206.009563
70
0
0
VERTEX
8
Layer 1
10
140.795689
20
207.890217
70
0
0
VERTEX
8
Layer 1
10
138.244546
20
210.266181
70
0
0
VERTEX
8
Layer 1
10
135.856471
20
212.003939
70
0
0
VERTEX
8
Layer 1
10
133.621491
20
213.104208
70
0
0
VERTEX
8
Layer 1
10
131.529636
20
213.567705
70
0
0
VERTEX
8
Layer 1
10
130.534264
20
213.560889
70
0
0
VERTEX
8
Layer 1
10
129.570933
20
213.395148
70
0
0
VERTEX
8
Layer 1
10
128.638398
20
213.070572
70
0
0
VERTEX
8
Layer 1
10
127.735411
20
212.587252
70
0
0
VERTEX
8
Layer 1
10
126.013096
20
211.144735
70
0
0
VERTEX
8
Layer 1
10
124.394018
20
209.068314
70
0
0
VERTEX
8
Layer 1
10
122.730307
20
206.752085
70
0
0
VERTEX
8
Layer 1
10
121.268282
20
205.049924
70
0
0
VERTEX
8
Layer 1
10
120.129215
20
204.163703
70
0
0
VERTEX
8
Layer 1
10
118.892921
20
203.570911
70
0
0
VERTEX
8
Layer 1
10
117.582957
20
203.254976
70
0
0
VERTEX
8
Layer 1
10
116.222878
20
203.199323
70
0
0
VERTEX
8
Layer 1
10
114.836239
20
203.387379
70
0
0
VERTEX
8
Layer 1
10
113.446597
20
203.802571
70
0
0
VERTEX
8
Layer 1
10
112.077505
20
204.428325
70
0
0
VERTEX
8
Layer 1
10
110.752521
20
205.248066
70
0
0
VERTEX
8
Layer 1
10
109.495199
20
206.245222
70
0
0
VERTEX
8
Layer 1
10
108.329096
20
207.403219
70
0
0
VERTEX
8
Layer 1
10
107.277766
20
208.705483
70
0
0
VERTEX
8
Layer 1
10
106.364766
20
210.135441
70
0
0
VERTEX
8
Layer 1
10
105.613650
20
211.676518
70
0
0
VERTEX
8
Layer 1
10
105.047975
20
213.312142
70
0
0
VERTEX
8
Layer 1
10
104.691296
20
215.025738
70
0
0
VERTEX
8
Layer 1
10
104.567168
20
216.800734
70
0
0
VERTEX
8
Layer 1
10
104.550367
20
218.495288
70
0
0
VERTEX
8
Layer 1
10
104.473625
20
218.935416
70
0
0
VERTEX
8
Layer 1
10
104.301773
20
219.115372
70
0
0
VERTEX
8
Layer 1
10
103.997651
20
219.043605
70
0
0
VERTEX
8
Layer 1
10
103.524099
20
218.728559
70
0
0
VERTEX
8
Layer 1
10
101.920058
20
217.402418
70
0
0
VERTEX
8
Layer 1
10
99.576422
20
215.253017
70
0
0
VERTEX
8
Layer 1
10
97.636910
20
213.040983
70
0
0
VERTEX
8
Layer 1
10
96.075157
20
210.699101
70
0
0
VERTEX
8
Layer 1
10
94.864795
20
208.160155
70
0
0
VERTEX
8
Layer 1
10
93.979459
20
205.356931
70
0
0
VERTEX
8
Layer 1
10
93.392781
20
202.222212
70
0
0
VERTEX
8
Layer 1
10
93.078396
20
198.688784
70
0
0
VERTEX
8
Layer 1
10
93.009936
20
194.689432
70
0
0
VERTEX
8
Layer 1
10
92.790269
20
189.369150
70
0
0
VERTEX
8
Layer 1
10
92.478278
20
187.054621
70
0
0
VERTEX
8
Layer 1
10
92.039609
20
184.978545
70
0
0
VERTEX
8
Layer 1
10
91.480330
20
183.146958
70
0
0
VERTEX
8
Layer 1
10
90.806513
20
181.565896
70
0
0
VERTEX
8
Layer 1
10
90.024227
20
180.241393
70
0
0
VERTEX
8
Layer 1
10
89.139542
20
179.179485
70
0
0
VERTEX
8
Layer 1
10
88.158527
20
178.386206
70
0
0
VERTEX
8
Layer 1
10
87.087253
20
177.867592
70
0
0
VERTEX
8
Layer 1
10
85.931790
20
177.629677
70
0
0
VERTEX
8
Layer 1
10
84.698207
20
177.678498
70
0
0
VERTEX
8
Layer 1
10
83.392574
20
178.020088
70
0
0
VERTEX
8
Layer 1
10
82.020961
20
178.660484
70
0
0
VERTEX
8
Layer 1
10
80.589438
20
179.605719
70
0
0
VERTEX
8
Layer 1
10
79.104075
20
180.861830
70
0
0
VERTEX
8
Layer 1
10
77.140796
20
182.598103
70
0
0
VERTEX
8
Layer 1
10
75.645273
20
183.724214
70
0
0
VERTEX
8
Layer 1
10
74.777104
20
184.136356
70
0
0
VERTEX
8
Layer 1
10
74.628152
20
184.042249
70
0
0
VERTEX
8
Layer 1
10
74.695888
20
183.730722
70
0
0
VERTEX
8
Layer 1
10
75.719764
20
180.796454
70
0
0
VERTEX
8
Layer 1
10
76.280662
20
177.816622
70
0
0
VERTEX
8
Layer 1
10
76.375946
20
174.777578
70
0
0
VERTEX
8
Layer 1
10
76.002985
20
171.665673
70
0
0
VERTEX
8
Layer 1
10
75.159147
20
168.467255
70
0
0
VERTEX
8
Layer 1
10
73.841798
20
165.168678
70
0
0
VERTEX
8
Layer 1
10
72.048306
20
161.756289
70
0
0
VERTEX
8
Layer 1
10
69.776039
20
158.216442
70
0
0
VERTEX
8
Layer 1
10
66.902286
20
153.755003
70
0
0
VERTEX
8
Layer 1
10
64.716492
20
149.594724
70
0
0
VERTEX
8
Layer 1
10
63.214197
20
145.703072
70
0
0
VERTEX
8
Layer 1
10
62.717968
20
143.847813
70
0
0
VERTEX
8
Layer 1
10
62.390943
20
142.047509
70
0
0
VERTEX
8
Layer 1
10
62.232563
20
140.298095
70
0
0
VERTEX
8
Layer 1
10
62.242271
20
138.595502
70
0
0
VERTEX
8
Layer 1
10
62.419510
20
136.935664
70
0
0
VERTEX
8
Layer 1
10
62.763722
20
135.314514
70
0
0
VERTEX
8
Layer 1
10
63.274350
20
133.727986
70
0
0
VERTEX
8
Layer 1
10
63.950837
20
132.172012
70
0
0
VERTEX
8
Layer 1
10
64.792626
20
130.642525
70
0
0
VERTEX
8
Layer 1
10
65.799158
20
129.135459
70
0
0
VERTEX
8
Layer 1
10
66.658677
20
128.310501
70
0
0
VERTEX
8
Layer 1
10
67.796581
20
127.723344
70
0
0
VERTEX
8
Layer 1
10
69.111220
20
127.373581
70
0
0
VERTEX
8
Layer 1
10
70.500941
20
127.260803
70
0
0
VERTEX
8
Layer 1
10
71.864093
20
127.384604
70
0
0
VERTEX
8
Layer 1
10
73.099024
20
127.744576
70
0
0
VERTEX
8
Layer 1
10
74.104082
20
128.340312
70
0
0
VERTEX
8
Layer 1
10
74.777616
20
129.171403
70
0
0
VERTEX
8
Layer 1
10
74.778117
20
129.171684
70
0
0
SEQEND
8
Layer 1
0
POLYLINE
8
Layer 1
62
7
70
0
10
0.000000
20
0.000000
66
1
0
VERTEX
8
Layer 1
10
96.366457
20
127.655740
70
0
0
VERTEX
8
Layer 1
10
96.868234
20
127.583240
70
0
0
VERTEX
8
Layer 1
10
97.137714
20
127.400766
70
0
0
VERTEX
8
Layer 1
10
97.183231
20
126.916050
70
0
0
VERTEX
8
Layer 1
10
96.909910
20
126.621899
70
0
0
VERTEX
8
Layer 1
10
96.780842
20
126.677631
70
0
0
VERTEX
8
Layer 1
10
96.724654
20
126.938621
70
0
0
VERTEX
8
Layer 1
10
96.738186
20
129.497644
70
0
0
VERTEX
8
Layer 1
10
96.963746
20
131.433961
70
0
0
VERTEX
8
Layer 1
10
97.613263
20
133.056146
70
0
0
VERTEX
8
Layer 1
10
98.898666
20
134.672774
70
0
0
VERTEX
8
Layer 1
10
99.919271
20
135.830612
70
0
0
VERTEX
8
Layer 1
10
100.796405
20
137.057434
70
0
0
VERTEX
8
Layer 1
10
101.530209
20
138.344084
70
0
0
VERTEX
8
Layer 1
10
102.120829
20
139.681402
70
0
0
VERTEX
8
Layer 1
10
102.873085
20
142.471414
70
0
0
VERTEX
8
Layer 1
10
103.054319
20
145.354205
70
0
0
VERTEX
8
Layer 1
10
102.665678
20
148.256512
70
0
0
VERTEX
8
Layer 1
10
101.708306
20
151.105070
70
0
0
VERTEX
8
Layer 1
10
100.183351
20
153.826615
70
0
0
VERTEX
8
Layer 1
10
98.091958
20
156.347883
70
0
0
VERTEX
8
Layer 1
10
96.869900
20
157.530043
70
0
0
VERTEX
8
Layer 1
10
96.488600
20
157.792687
70
0
0
VERTEX
8
Layer 1
10
96.224788
20
157.820894
70
0
0
VERTEX
8
Layer 1
10
96.051717
20
157.603055
70
0
0
VERTEX
8
Layer 1
10
95.942638
20
157.127558
70
0
0
VERTEX
8
Layer 1
10
95.809467
20
155.357152
70
0
0
VERTEX
8
Layer 1
10
95.436728
20
152.797472
70
0
0
VERTEX
8
Layer 1
10
94.654603
20
150.592599
70
0
0
VERTEX
8
Layer 1
10
93.512990
20
148.778953
70
0
0
VERTEX
8
Layer 1
10
92.061786
20
147.392952
70
0
0
VERTEX
8
Layer 1
10
90.350891
20
146.471016
70
0
0
VERTEX
8
Layer 1
10
88.430202
20
146.049562
70
0
0
VERTEX
8
Layer 1
10
86.349618
20
146.165010
70
0
0
VERTEX
8
Layer 1
10
84.159037
20
146.853778
70
0
0
VERTEX
8
Layer 1
10
82.161056
20
147.467819
70
0
0
VERTEX
8
Layer 1
10
80.385984
20
147.483756
70
0
0
VERTEX
8
Layer 1
10
78.872805
20
146.948944
70
0
0
VERTEX
8
Layer 1
10
77.660506
20
145.910733
70
0
0
VERTEX
8
Layer 1
10
76.788074
20
144.416478
70
0
0
VERTEX
8
Layer 1
10
76.294494
20
142.513530
70
0
0
VERTEX
8
Layer 1
10
76.218754
20
140.249242
70
0
0
VERTEX
8
Layer 1
10
76.599838
20
137.670967
70
0
0
VERTEX
8
Layer 1
10
77.074364
20
134.923127
70
0
0
VERTEX
8
Layer 1
10
77.206545
20
132.409180
70
0
0
VERTEX
8
Layer 1
10
76.998392
20
130.252262
70
0
0
VERTEX
8
Layer 1
10
76.451913
20
128.575512
70
0
0
VERTEX
8
Layer 1
10
86.158201
20
128.553886
70
0
0
VERTEX
8
Layer 1
10
91.278454
20
128.291073
70
0
0
VERTEX
8
Layer 1
10
96.366192
20
127.655775
70
0
0
VERTEX
8
Layer 1
10
96.366457
20
127.655740
70
0
0
SEQEND
8
Layer 1
0
POLYLINE
8
Layer 1
62
7
70
0
10
0.000000
20
0.000000
66
1
0
VERTEX
8
Layer 1
10
142.597995
20
140.884327
70
0
0
VERTEX
8
Layer 1
10
147.799086
20
148.361611
70
0
0
VERTEX
8
Layer 1
10
150.529212
20
152.410506
70
0
0
VERTEX
8
Layer 1
10
153.161573
20
155.884306
70
0
0
VERTEX
8
Layer 1
10
156.588366
20
160.903480
70
0
0
VERTEX
8
Layer 1
10
158.332893
20
163.446996
70
0
0
VERTEX
8
Layer 1
10
159.246195
20
164.962775
70
0
0
VERTEX
8
Layer 1
10
159.562429
20
165.922178
70
0
0
VERTEX
8
Layer 1
10
159.515757
20
166.796564
70
0
0
VERTEX
8
Layer 1
10
159.222637
20
168.066218
70
0
0
VERTEX
8
Layer 1
10
158.746947
20
169.205015
70
0
0
VERTEX
8
Layer 1
10
158.086126
20
170.215184
70
0
0
VERTEX
8
Layer 1
10
157.237610
20
171.098949
70
0
0
VERTEX
8
Layer 1
10
156.198837
20
171.858536
70
0
0
VERTEX
8
Layer 1
10
154.967245
20
172.496173
70
0
0
VERTEX
8
Layer 1
10
153.540270
20
173.014084
70
0
0
VERTEX
8
Layer 1
10
151.915351
20
173.414497
70
0
0
VERTEX
8
Layer 1
10
148.940802
20
174.058021
70
0
0
VERTEX
8
Layer 1
10
146.560343
20
174.717087
70
0
0
VERTEX
8
Layer 1
10
144.702400
20
175.447497
70
0
0
VERTEX
8
Layer 1
10
143.295400
20
176.305051
70
0
0
VERTEX
8
Layer 1
10
142.267767
20
177.345551
70
0
0
VERTEX
8
Layer 1
10
141.547927
20
178.624799
70
0
0
VERTEX
8
Layer 1
10
141.064308
20
180.198595
70
0
0
VERTEX
8
Layer 1
10
140.745334
20
182.122742
70
0
0
VERTEX
8
Layer 1
10
140.464072
20
183.559714
70
0
0
VERTEX
8
Layer 1
10
140.017141
20
184.925592
70
0
0
VERTEX
8
Layer 1
10
139.467162
20
186.133972
70
0
0
VERTEX
8
Layer 1
10
138.876756
20
187.098455
70
0
0
VERTEX
8
Layer 1
10
138.308544
20
187.732638
70
0
0
VERTEX
8
Layer 1
10
137.825148
20
187.950119
70
0
0
VERTEX
8
Layer 1
10
137.489188
20
187.664498
70
0
0
VERTEX
8
Layer 1
10
137.363285
20
186.789371
70
0
0
VERTEX
8
Layer 1
10
137.244626
20
185.508932
70
0
0
VERTEX
8
Layer 1
10
136.908185
20
184.471169
70
0
0
VERTEX
8
Layer 1
10
136.383263
20
183.667056
70
0
0
VERTEX
8
Layer 1
10
135.699162
20
183.087567
70
0
0
VERTEX
8
Layer 1
10
134.885185
20
182.723675
70
0
0
VERTEX
8
Layer 1
10
133.970633
20
182.566356
70
0
0
VERTEX
8
Layer 1
10
132.984809
20
182.606582
70
0
0
VERTEX
8
Layer 1
10
131.957015
20
182.835329
70
0
0
VERTEX
8
Layer 1
10
130.916552
20
183.243569
70
0
0
VERTEX
8
Layer 1
10
129.892724
20
183.822277
70
0
0
VERTEX
8
Layer 1
10
128.914831
20
184.562428
70
0
0
VERTEX
8
Layer 1
10
128.012177
20
185.454994
70
0
0
VERTEX
8
Layer 1
10
127.214063
20
186.490951
70
0
0
VERTEX
8
Layer 1
10
126.549791
20
187.661271
70
0
0
VERTEX
8
Layer 1
10
126.048664
20
188.956929
70
0
0
VERTEX
8
Layer 1
10
125.739984
20
190.368900
70
0
0
VERTEX
8
Layer 1
10
125.561011
20
191.544267
70
0
0
VERTEX
8
Layer 1
10
125.385594
20
191.972165
70
0
0
VERTEX
8
Layer 1
10
125.109545
20
191.685094
70
0
0
VERTEX
8
Layer 1
10
124.628682
20
190.715552
70
0
0
VERTEX
8
Layer 1
10
124.124082
20
189.359834
70
0
0
VERTEX
8
Layer 1
10
123.830515
20
187.892223
70
0
0
VERTEX
8
Layer 1
10
123.742843
20
186.351079
70
0
0
VERTEX
8
Layer 1
10
123.855927
20
184.774764
70
0
0
VERTEX
8
Layer 1
10
124.164629
20
183.201639
70
0
0
VERTEX
8
Layer 1
10
124.663808
20
181.670065
70
0
0
VERTEX
8
Layer 1
10
125.348328
20
180.218402
70
0
0
VERTEX
8
Layer 1
10
126.213047
20
178.885013
70
0
0
VERTEX
8
Layer 1
10
126.997807
20
177.614835
70
0
0
VERTEX
8
Layer 1
10
127.093012
20
177.179436
70
0
0
VERTEX
8
Layer 1
10
126.982973
20
176.868841
70
0
0
VERTEX
8
Layer 1
10
126.662342
20
176.676812
70
0
0
VERTEX
8
Layer 1
10
126.125772
20
176.597106
70
0
0
VERTEX
8
Layer 1
10
124.383428
20
176.749706
70
0
0
VERTEX
8
Layer 1
10
123.076462
20
177.046142
70
0
0
VERTEX
8
Layer 1
10
121.802741
20
177.509039
70
0
0
VERTEX
8
Layer 1
10
120.581341
20
178.124309
70
0
0
VERTEX
8
Layer 1
10
119.431343
20
178.877867
70
0
0
VERTEX
8
Layer 1
10
118.371824
20
179.755627
70
0
0
VERTEX
8
Layer 1
10
117.421864
20
180.743502
70
0
0
VERTEX
8
Layer 1
10
116.600541
20
181.827407
70
0
0
VERTEX
8
Layer 1
10
115.926934
20
182.993255
70
0
0
VERTEX
8
Layer 1
10
115.184817
20
184.087178
70
0
0
VERTEX
8
Layer 1
10
114.894930
20
184.155702
70
0
0
VERTEX
8
Layer 1
10
114.657614
20
183.902233
70
0
0
VERTEX
8
Layer 1
10
114.336056
20
182.420208
70
0
0
VERTEX
8
Layer 1
10
114.210876
20
179.622896
70
0
0
VERTEX
8
Layer 1
10
114.344574
20
177.316802
70
0
0
VERTEX
8
Layer 1
10
114.809217
20
175.175010
70
0
0
VERTEX
8
Layer 1
10
115.637438
20
173.153795
70
0
0
VERTEX
8
Layer 1
10
116.861869
20
171.209435
70
0
0
VERTEX
8
Layer 1
10
118.515142
20
169.298208
70
0
0
VERTEX
8
Layer 1
10
120.629891
20
167.376390
70
0
0
VERTEX
8
Layer 1
10
123.238746
20
165.400259
70
0
0
VERTEX
8
Layer 1
10
126.374341
20
163.326092
70
0
0
VERTEX
8
Layer 1
10
128.944809
20
161.561262
70
0
0
VERTEX
8
Layer 1
10
131.140815
20
159.717965
70
0
0
VERTEX
8
Layer 1
10
132.972382
20
157.779966
70
0
0
VERTEX
8
Layer 1
10
134.449536
20
155.731034
70
0
0
VERTEX
8
Layer 1
10
135.582300
20
153.554934
70
0
0
VERTEX
8
Layer 1
10
136.380699
20
151.235434
70
0
0
VERTEX
8
Layer 1
10
136.854756
20
148.756300
70
0
0
VERTEX
8
Layer 1
10
137.014497
20
146.101301
70
0
0
VERTEX
8
Layer 1
10
137.125966
20
143.644421
70
0
0
VERTEX
8
Layer 1
10
137.466643
20
141.748955
70
0
0
VERTEX
8
Layer 1
10
138.064089
20
140.317114
70
0
0
VERTEX
8
Layer 1
10
138.945865
20
139.251111
70
0
0
VERTEX
8
Layer 1
10
139.891950
20
138.479984
70
0
0
VERTEX
8
Layer 1
10
140.245662
20
138.339616
70
0
0
VERTEX
8
Layer 1
10
140.579052
20
138.389204
70
0
0
VERTEX
8
Layer 1
10
141.362567
20
139.137733
70
0
0
VERTEX
8
Layer 1
10
142.597892
20
140.884535
70
0
0
VERTEX
8
Layer 1
10
142.597995
20
140.884327
70
0
0
SEQEND
8
Layer 1
0
POLYLINE
8
Layer 1
62
7
70
0
10
0.000000
20
0.000000
66
1
0
VERTEX
8
Layer 1
10
72.627422
20
166.103260
70
0
0
VERTEX
8
Layer 1
10
73.485305
20
168.209318
70
0
0
VERTEX
8
Layer 1
10
74.120925
20
170.302028
70
0
0
VERTEX
8
Layer 1
10
74.534153
20
172.378082
70
0
0
VERTEX
8
Layer 1
10
74.724861
20
174.434174
70
0
0
VERTEX
8
Layer 1
10
74.692920
20
176.466997
70
0
0
VERTEX
8
Layer 1
10
74.438203
20
178.473244
70
0
0
VERTEX
8
Layer 1
10
73.960581
20
180.449609
70
0
0
VERTEX
8
Layer 1
10
73.259925
20
182.392784
70
0
0
VERTEX
8
Layer 1
10
72.722430
20
184.095756
70
0
0
VERTEX
8
Layer 1
10
72.717173
20
185.295066
70
0
0
VERTEX
8
Layer 1
10
72.894152
20
185.706752
70
0
0
VERTEX
8
Layer 1
10
73.180213
20
185.993608
70
0
0
VERTEX
8
Layer 1
10
74.047613
20
186.194277
70
0
0
VERTEX
8
Layer 1
10
75.255435
20
185.899968
70
0
0
VERTEX
8
Layer 1
10
76.739741
20
185.113574
70
0
0
VERTEX
8
Layer 1
10
78.436592
20
183.837990
70
0
0
VERTEX
8
Layer 1
10
80.282050
20
182.076111
70
0
0
VERTEX
8
Layer 1
10
81.478886
20
180.946072
70
0
0
VERTEX
8
Layer 1
10
82.636994
20
180.114703
70
0
0
VERTEX
8
Layer 1
10
83.750407
20
179.574694
70
0
0
VERTEX
8
Layer 1
10
84.813152
20
179.318733
70
0
0
VERTEX
8
Layer 1
10
85.819261
20
179.339510
70
0
0
VERTEX
8
Layer 1
10
86.762764
20
179.629714
70
0
0
VERTEX
8
Layer 1
10
87.637691
20
180.182033
70
0
0
VERTEX
8
Layer 1
10
88.438072
20
180.989157
70
0
0
VERTEX
8
Layer 1
10
89.157937
20
182.043776
70
0
0
VERTEX
8
Layer 1
10
89.791317
20
183.338577
70
0
0
VERTEX
8
Layer 1
10
90.332240
20
184.866251
70
0
0
VERTEX
8
Layer 1
10
90.774739
20
186.619487
70
0
0
VERTEX
8
Layer 1
10
91.340579
20
190.773398
70
0
0
VERTEX
8
Layer 1
10
91.441079
20
195.741826
70
0
0
VERTEX
8
Layer 1
10
91.505626
20
199.726819
70
0
0
VERTEX
8
Layer 1
10
91.931567
20
203.412769
70
0
0
VERTEX
8
Layer 1
10
92.723958
20
206.810861
70
0
0
VERTEX
8
Layer 1
10
93.887860
20
209.932285
70
0
0
VERTEX
8
Layer 1
10
95.428329
20
212.788228
70
0
0
VERTEX
8
Layer 1
10
97.350425
20
215.389877
70
0
0
VERTEX
8
Layer 1
10
99.659206
20
217.748420
70
0
0
VERTEX
8
Layer 1
10
102.359730
20
219.875045
70
0
0
VERTEX
8
Layer 1
10
104.872806
20
221.512078
70
0
0
VERTEX
8
Layer 1
10
105.671846
20
221.886224
70
0
0
VERTEX
8
Layer 1
10
106.209468
20
221.955165
70
0
0
VERTEX
8
Layer 1
10
106.518355
20
221.712184
70
0
0
VERTEX
8
Layer 1
10
106.631192
20
221.150564
70
0
0
VERTEX
8
Layer 1
10
106.399452
20
219.044536
70
0
0
VERTEX
8
Layer 1
10
106.233046
20
217.335289
70
0
0
VERTEX
8
Layer 1
10
106.308894
20
215.639606
70
0
0
VERTEX
8
Layer 1
10
106.618557
20
213.978071
70
0
0
VERTEX
8
Layer 1
10
107.153595
20
212.371268
70
0
0
VERTEX
8
Layer 1
10
107.905569
20
210.839781
70
0
0
VERTEX
8
Layer 1
10
108.866039
20
209.404192
70
0
0
VERTEX
8
Layer 1
10
110.026565
20
208.085087
70
0
0
VERTEX
8
Layer 1
10
111.378709
20
206.903050
70
0
0
VERTEX
8
Layer 1
10
113.069761
20
205.752040
70
0
0
VERTEX
8
Layer 1
10
114.623440
20
205.016065
70
0
0
VERTEX
8
Layer 1
10
116.072064
20
204.703172
70
0
0
VERTEX
8
Layer 1
10
117.447950
20
204.821413
70
0
0
VERTEX
8
Layer 1
10
118.783418
20
205.378837
70
0
0
VERTEX
8
Layer 1
10
120.110785
20
206.383494
70
0
0
VERTEX
8
Layer 1
10
121.462369
20
207.843434
70
0
0
VERTEX
8
Layer 1
10
122.870490
20
209.766707
70
0
0
VERTEX
8
Layer 1
10
124.830083
20
212.252316
70
0
0
VERTEX
8
Layer 1
10
125.847220
20
213.221187
70
0
0
VERTEX
8
Layer 1
10
126.890821
20
214.007387
70
0
0
VERTEX
8
Layer 1
10
127.962064
20
214.610880
70
0
0
VERTEX
8
Layer 1
10
129.062127
20
215.031629
70
0
0
VERTEX
8
Layer 1
10
130.192188
20
215.269597
70
0
0
VERTEX
8
Layer 1
10
131.353426
20
215.324748
70
0
0
VERTEX
8
Layer 1
10
132.547018
20
215.197044
70
0
0
VERTEX
8
Layer 1
10
133.774142
20
214.886451
70
0
0
VERTEX
8
Layer 1
10
135.035978
20
214.392930
70
0
0
VERTEX
8
Layer 1
10
136.333702
20
213.716445
70
0
0
VERTEX
8
Layer 1
10
139.041528
20
211.814438
70
0
0
VERTEX
8
Layer 1
10
141.907046
20
209.180137
70
0
0
VERTEX
8
Layer 1
10
143.805878
20
207.302357
70
0
0
VERTEX
8
Layer 1
10
145.264979
20
206.059000
70
0
0
VERTEX
8
Layer 1
10
146.707584
20
205.133810
70
0
0
VERTEX
8
Layer 1
10
148.556929
20
204.210534
70
0
0
VERTEX
8
Layer 1
10
152.940748
20
201.881574
70
0
0
VERTEX
8
Layer 1
10
154.624211
20
200.745077
70
0
0
VERTEX
8
Layer 1
10
155.992504
20
199.612542
70
0
0
VERTEX
8
Layer 1
10
157.031080
20
198.761834
70
0
0
VERTEX
8
Layer 1
10
157.151506
20
198.786989
70
0
0
VERTEX
8
Layer 1
10
157.032728
20
199.079115
70
0
0
VERTEX
8
Layer 1
10
154.566118
20
202.416827
70
0
0
VERTEX
8
Layer 1
10
149.874425
20
208.024047
70
0
0
VERTEX
8
Layer 1
10
144.239398
20
214.299147
70
0
0
VERTEX
8
Layer 1
10
141.171458
20
217.915889
70
0
0
VERTEX
8
Layer 1
10
138.372788
20
221.890653
70
0
0
VERTEX
8
Layer 1
10
135.873042
20
226.155499
70
0
0
VERTEX
8
Layer 1
10
133.701875
20
230.642489
70
0
0
VERTEX
8
Layer 1
10
131.888940
20
235.283685
70
0
0
VERTEX
8
Layer 1
10
130.463893
20
240.011149
70
0
0
VERTEX
8
Layer 1
10
129.456387
20
244.756943
70
0
0
VERTEX
8
Layer 1
10
128.896077
20
249.453127
70
0
0
VERTEX
8
Layer 1
10
128.721692
20
251.517967
70
0
0
VERTEX
8
Layer 1
10
128.600680
20
252.086103
70
0
0
VERTEX
8
Layer 1
10
128.415545
20
252.372608
70
0
0
VERTEX
8
Layer 1
10
128.135105
20
252.398401
70
0
0
VERTEX
8
Layer 1
10
127.728176
20
252.184400
70
0
0
VERTEX
8
Layer 1
10
126.410123
20
251.120696
70
0
0
VERTEX
8
Layer 1
10
124.532109
20
249.341197
70
0
0
VERTEX
8
Layer 1
10
122.899495
20
247.374482
70
0
0
VERTEX
8
Layer 1
10
121.514070
20
245.224816
70
0
0
VERTEX
8
Layer 1
10
120.377625
20
242.896464
70
0
0
VERTEX
8
Layer 1
10
119.491951
20
240.393692
70
0
0
VERTEX
8
Layer 1
10
118.858839
20
237.720765
70
0
0
VERTEX
8
Layer 1
10
118.480079
20
234.881950
70
0
0
VERTEX
8
Layer 1
10
118.357463
20
231.881510
70
0
0
VERTEX
8
Layer 1
10
118.305974
20
228.787032
70
0
0
VERTEX
8
Layer 1
10
118.150469
20
227.905595
70
0
0
VERTEX
8
Layer 1
10
117.832747
20
227.410804
70
0
0
VERTEX
8
Layer 1
10
117.296024
20
227.259743
70
0
0
VERTEX
8
Layer 1
10
116.483517
20
227.409496
70
0
0
VERTEX
8
Layer 1
10
113.804019
20
228.439776
70
0
0
VERTEX
8
Layer 1
10
111.404053
20
229.514667
70
0
0
VERTEX
8
Layer 1
10
109.127413
20
230.721223
70
0
0
VERTEX
8
Layer 1
10
106.977532
20
232.054639
70
0
0
VERTEX
8
Layer 1
10
104.957849
20
233.510108
70
0
0
VERTEX
8
Layer 1
10
103.071799
20
235.082827
70
0
0
VERTEX
8
Layer 1
10
101.322818
20
236.767989
70
0
0
VERTEX
8
Layer 1
10
99.714343
20
238.560790
70
0
0
VERTEX
8
Layer 1
10
98.249809
20
240.456424
70
0
0
VERTEX
8
Layer 1
10
96.932653
20
242.450086
70
0
0
VERTEX
8
Layer 1
10
95.766310
20
244.536971
70
0
0
VERTEX
8
Layer 1
10
94.754218
20
246.712273
70
0
0
VERTEX
8
Layer 1
10
93.899811
20
248.971188
70
0
0
VERTEX
8
Layer 1
10
93.206527
20
251.308910
70
0
0
VERTEX
8
Layer 1
10
92.677802
20
253.720634
70
0
0
VERTEX
8
Layer 1
10
92.317070
20
256.201555
70
0
0
VERTEX
8
Layer 1
10
92.127770
20
258.746867
70
0
0
VERTEX
8
Layer 1
10
91.791196
20
263.340006
70
0
0
VERTEX
8
Layer 1
10
90.753476
20
262.630994
70
0
0
VERTEX
8
Layer 1
10
88.743561
20
260.928694
70
0
0
VERTEX
8
Layer 1
10
84.699705
20
257.092643
70
0
0
VERTEX
8
Layer 1
10
81.828194
20
253.656151
70
0
0
VERTEX
8
Layer 1
10
79.388630
20
250.070351
70
0
0
VERTEX
8
Layer 1
10
77.373296
20
246.312780
70
0
0
VERTEX
8
Layer 1
10
75.774474
20
242.360973
70
0
0
VERTEX
8
Layer 1
10
74.584443
20
238.192465
70
0
0
VERTEX
8
Layer 1
10
73.795487
20
233.784792
70
0
0
VERTEX
8
Layer 1
10
73.399887
20
229.115488
70
0
0
VERTEX
8
Layer 1
10
73.389925
20
224.162090
70
0
0
VERTEX
8
Layer 1
10
73.372852
20
220.762598
70
0
0
VERTEX
8
Layer 1
10
73.089305
20
217.537137
70
0
0
VERTEX
8
Layer 1
10
72.559708
20
214.506927
70
0
0
VERTEX
8
Layer 1
10
71.804484
20
211.693191
70
0
0
VERTEX
8
Layer 1
10
70.844058
20
209.117149
70
0
0
VERTEX
8
Layer 1
10
69.698854
20
206.800025
70
0
0
VERTEX
8
Layer 1
10
68.389296
20
204.763038
70
0
0
VERTEX
8
Layer 1
10
66.935808
20
203.027411
70
0
0
VERTEX
8
Layer 1
10
65.358814
20
201.614365
70
0
0
VERTEX
8
Layer 1
10
63.678739
20
200.545123
70
0
0
VERTEX
8
Layer 1
10
61.916006
20
199.840904
70
0
0
VERTEX
8
Layer 1
10
60.091039
20
199.522932
70
0
0
VERTEX
8
Layer 1
10
58.224263
20
199.612428
70
0
0
VERTEX
8
Layer 1
10
56.336102
20
200.130613
70
0
0
VERTEX
8
Layer 1
10
54.446979
20
201.098710
70
0
0
VERTEX
8
Layer 1
10
52.577319
20
202.537938
70
0
0
VERTEX
8
Layer 1
10
51.565391
20
203.427288
70
0
0
VERTEX
8
Layer 1
10
51.045752
20
203.695352
70
0
0
VERTEX
8
Layer 1
10
50.854306
20
203.316580
70
0
0
VERTEX
8
Layer 1
10
50.826956
20
202.265425
70
0
0
VERTEX
8
Layer 1
10
50.963977
20
198.850826
70
0
0
VERTEX
8
Layer 1
10
51.377946
20
195.576942
70
0
0
VERTEX
8
Layer 1
10
52.073224
20
192.432265
70
0
0
VERTEX
8
Layer 1
10
53.054169
20
189.405285
70
0
0
VERTEX
8
Layer 1
10
54.325142
20
186.484495
70
0
0
VERTEX
8
Layer 1
10
55.890503
20
183.658386
70
0
0
VERTEX
8
Layer 1
10
57.754611
20
180.915448
70
0
0
VERTEX
8
Layer 1
10
59.921826
20
178.244174
70
0
0
VERTEX
8
Layer 1
10
62.135424
20
175.527334
70
0
0
VERTEX
8
Layer 1
10
63.933454
20
172.874849
70
0
0
VERTEX
8
Layer 1
10
65.323495
20
170.261834
70
0
0
VERTEX
8
Layer 1
10
66.313131
20
167.663402
70
0
0
VERTEX
8
Layer 1
10
66.909941
20
165.054668
70
0
0
VERTEX
8
Layer 1
10
67.121509
20
162.410747
70
0
0
VERTEX
8
Layer 1
10
66.955415
20
159.706751
70
0
0
VERTEX
8
Layer 1
10
66.419240
20
156.917797
70
0
0
VERTEX
8
Layer 1
10
66.418008
20
156.764587
70
0
0
VERTEX
8
Layer 1
10
66.535438
20
156.807155
70
0
0
VERTEX
8
Layer 1
10
67.069061
20
157.394944
70
0
0
VERTEX
8
Layer 1
10
68.930756
20
159.988336
70
0
0
VERTEX
8
Layer 1
10
71.088676
20
163.343028
70
0
0
VERTEX
8
Layer 1
10
72.627171
20
166.104075
70
0
0
VERTEX
8
Layer 1
10
72.627422
20
166.103260
70
0
0
SEQEND
8
Layer 1
 0 
ENDSEC
 0 
EOF